<svg width="34" height="34" viewBox="0 0 34 34" fill="none" xmlns="http://www.w3.org/2000/svg">
<path d="M17 18.4166C19.3472 18.4166 21.25 16.5138 21.25 14.1666C21.25 11.8194 19.3472 9.91663 17 9.91663C14.6528 9.91663 12.75 11.8194 12.75 14.1666C12.75 16.5138 14.6528 18.4166 17 18.4166Z" stroke="black" stroke-width="2" stroke-linecap="round" stroke-linejoin="round"/>
<path d="M16.9998 2.83331C13.9941 2.83331 11.1114 4.02736 8.98596 6.15277C6.86055 8.27818 5.6665 11.1609 5.6665 14.1666C5.6665 16.847 6.236 18.6008 7.7915 20.5416L16.9998 31.1666L26.2082 20.5416C27.7637 18.6008 28.3332 16.847 28.3332 14.1666C28.3332 11.1609 27.1391 8.27818 25.0137 6.15277C22.8883 4.02736 20.0056 2.83331 16.9998 2.83331V2.83331Z" stroke="black" stroke-width="2" stroke-linecap="round" stroke-linejoin="round"/>
</svg>
