<svg width="78" height="63" viewBox="0 0 78 63" fill="none" xmlns="http://www.w3.org/2000/svg">
<path d="M28.802 8.56179C27.5564 9.57579 27.6234 11.2164 28.3613 12.5216C29.132 13.8872 29.3705 15.4122 29.0447 16.8915C28.7189 18.3708 27.8445 19.7334 26.539 20.7961C25.2336 21.8587 23.5596 22.5705 21.7424 22.8357C19.9251 23.1009 18.0517 22.9068 16.374 22.2794C14.7706 21.6814 12.7552 21.6242 11.5095 22.6382L9.63781 24.1618C9.03902 24.6494 8.70264 25.3106 8.70264 26C8.70264 26.6894 9.03902 27.3506 9.63781 27.8382L43.4499 55.3618C44.0489 55.8492 44.8612 56.123 45.7081 56.123C46.555 56.123 47.3673 55.8492 47.9663 55.3618L49.838 53.8382C51.0837 52.8242 51.0166 51.1836 50.2788 49.8784C49.5081 48.5128 49.2696 46.9877 49.5953 45.5085C49.9211 44.0292 50.7955 42.6666 52.101 41.6039C53.4065 40.5412 55.0804 39.8295 56.8977 39.5643C58.7149 39.2991 60.5883 39.4932 62.266 40.1206C63.8694 40.7186 65.8849 40.7758 67.1305 39.7618L69.0022 38.2382C69.601 37.7506 69.9374 37.0894 69.9374 36.4C69.9374 35.7106 69.601 35.0494 69.0022 34.5618L35.1901 7.03819C34.5912 6.55077 33.7789 6.27695 32.9319 6.27695C32.085 6.27695 31.2727 6.55077 30.6738 7.03819L28.802 8.56179V8.56179Z" stroke="white" stroke-width="2" stroke-linecap="round" stroke-linejoin="round"/>
</svg>
